# Blender v2.76 (sub 0) OBJ File: ''
# www.blender.org
mtllib cam_cctv.mtl
o CCTV_Cylinder.003
v -0.006033 0.106314 0.036283
v -0.012775 0.106314 0.028101
v 0.003592 0.106314 -0.005885
v 0.003592 0.106314 0.031836
v 0.003592 0.080743 0.052221
v -0.009642 0.080743 0.052097
v -0.021619 0.080743 0.046466
v -0.006033 -0.098259 0.036282
v 0.003592 -0.098259 0.031835
v 0.003592 -0.098259 -0.005886
v -0.012775 -0.098259 0.028100
v -0.021619 -0.072687 0.046466
v -0.009642 -0.072687 0.052097
v 0.003592 -0.072687 0.052220
v -0.010845 0.004028 0.057368
v 0.003592 0.004028 0.059015
v -0.024567 0.004028 0.052588
v -0.023376 0.106314 0.027932
v -0.025900 0.106314 0.017634
v -0.033489 0.080743 0.040613
v -0.041837 0.080743 0.030343
v -0.023376 -0.098259 0.027931
v -0.025900 -0.098259 0.017633
v -0.041837 -0.072687 0.030343
v -0.033489 -0.072687 0.040613
v -0.036860 0.004028 0.044840
v -0.047149 0.004028 0.034580
v -0.035377 0.106314 0.012882
v -0.033183 0.106314 0.002509
v -0.049991 0.080743 0.019919
v -0.053057 0.080743 0.007045
v -0.035377 -0.098259 0.012881
v -0.033183 -0.098259 0.002508
v -0.053057 -0.072687 0.007044
v -0.049991 -0.072687 0.019918
v -0.054862 0.004028 0.022265
v -0.059681 0.004028 0.008557
v -0.039661 0.106314 -0.005885
v -0.033183 0.106314 -0.014279
v -0.055881 0.080743 -0.005885
v -0.053057 0.080743 -0.018815
v -0.039661 -0.098259 -0.005886
v -0.033183 -0.098259 -0.014280
v -0.053057 -0.072687 -0.018816
v -0.055881 -0.072687 -0.005886
v -0.061287 0.004028 -0.005885
v -0.059681 0.004028 -0.020327
v -0.035377 0.106314 -0.024652
v -0.025900 0.106314 -0.029404
v -0.049991 0.080743 -0.031689
v -0.041837 0.080743 -0.042113
v -0.035377 -0.098259 -0.024653
v -0.025900 -0.098259 -0.029405
v -0.041837 -0.072687 -0.042114
v -0.049991 -0.072687 -0.031690
v -0.054862 0.004028 -0.034035
v -0.047149 0.004028 -0.046350
v -0.023376 0.106314 -0.039701
v -0.012775 0.106314 -0.039871
v -0.033489 0.080743 -0.052383
v -0.021619 0.080743 -0.058236
v -0.023376 -0.098259 -0.039702
v -0.012775 -0.098259 -0.039872
v -0.021619 -0.072687 -0.058237
v -0.033489 -0.072687 -0.052384
v -0.036860 0.004028 -0.056610
v -0.024567 0.004028 -0.064358
v -0.006033 0.106314 -0.048053
v 0.003592 0.106314 -0.043606
v -0.009642 0.080743 -0.063867
v 0.003592 0.080743 -0.063990
v -0.006033 -0.098259 -0.048054
v 0.003592 -0.098259 -0.043607
v 0.003592 -0.072687 -0.063991
v -0.009642 -0.072687 -0.063868
v -0.010845 0.004028 -0.069138
v 0.003592 0.004028 -0.070785
v 0.013217 0.106314 -0.048053
v 0.019959 0.106314 -0.039871
v 0.016826 0.080743 -0.063867
v 0.028803 0.080743 -0.058236
v 0.013217 -0.098259 -0.048054
v 0.019959 -0.098259 -0.039872
v 0.028803 -0.072687 -0.058237
v 0.016826 -0.072687 -0.063868
v 0.018029 0.004028 -0.069138
v 0.031751 0.004028 -0.064358
v 0.030560 0.106314 -0.039701
v 0.033084 0.106314 -0.029404
v 0.040673 0.080743 -0.052383
v 0.049021 0.080743 -0.042113
v 0.030560 -0.098259 -0.039702
v 0.033084 -0.098259 -0.029405
v 0.049021 -0.072687 -0.042114
v 0.040673 -0.072687 -0.052384
v 0.044044 0.004028 -0.056610
v 0.054333 0.004028 -0.046350
v 0.042562 0.106314 -0.024652
v 0.040367 0.106314 -0.014279
v 0.057175 0.080743 -0.031689
v 0.060241 0.080743 -0.018815
v 0.042562 -0.098259 -0.024653
v 0.040367 -0.098259 -0.014280
v 0.060241 -0.072687 -0.018816
v 0.057175 -0.072687 -0.031690
v 0.062046 0.004028 -0.034035
v 0.066865 0.004028 -0.020327
v 0.046845 0.106314 -0.005885
v 0.040367 0.106314 0.002509
v 0.063065 0.080743 -0.005885
v 0.060241 0.080743 0.007045
v 0.046845 -0.098259 -0.005886
v 0.040367 -0.098259 0.002508
v 0.060241 -0.072687 0.007044
v 0.063065 -0.072687 -0.005886
v 0.068471 0.004028 -0.005885
v 0.066865 0.004028 0.008557
v 0.042562 0.106314 0.012882
v 0.033084 0.106314 0.017634
v 0.057175 0.080743 0.019919
v 0.049021 0.080743 0.030343
v 0.042562 -0.098259 0.012881
v 0.033084 -0.098259 0.017633
v 0.049021 -0.072687 0.030343
v 0.057175 -0.072687 0.019918
v 0.062046 0.004028 0.022265
v 0.054333 0.004028 0.034580
v 0.030560 0.106314 0.027932
v 0.019959 0.106314 0.028101
v 0.040673 0.080743 0.040613
v 0.028803 0.080743 0.046466
v 0.030560 -0.098259 0.027931
v 0.019959 -0.098259 0.028100
v 0.028803 -0.072687 0.046466
v 0.040673 -0.072687 0.040613
v 0.044044 0.004028 0.044840
v 0.031751 0.004028 0.052588
v 0.013217 0.106314 0.036283
v 0.016826 0.080743 0.052097
v 0.013217 -0.098259 0.036282
v 0.016826 -0.072687 0.052097
v 0.018029 0.004028 0.057368
vn 0.000000 -1.000000 0.000000
vn -0.153500 -0.563600 -0.811600
vn 0.490500 -0.563600 -0.664700
vn -0.000000 1.000000 0.000000
vn 0.490500 0.563600 -0.664700
vn -0.153500 0.563600 -0.811600
vn 0.063700 -0.078700 -0.994900
vn 0.063700 0.078700 -0.994900
vn 0.374300 0.078700 -0.924000
vn 0.374300 -0.078700 -0.924000
vn 0.213800 -0.563600 -0.797900
vn 0.730300 -0.563600 -0.386000
vn 0.730300 0.563600 -0.386000
vn 0.213800 0.563600 -0.797900
vn 0.489000 -0.078700 -0.868700
vn 0.489000 0.078700 -0.868700
vn 0.738100 0.078700 -0.670100
vn 0.738100 -0.078700 -0.670100
vn 0.538900 -0.563600 -0.626000
vn 0.825400 -0.563600 -0.031000
vn 0.825400 0.563600 -0.031000
vn 0.538900 0.563600 -0.626100
vn 0.817500 -0.078700 -0.570500
vn 0.817500 0.078700 -0.570500
vn 0.955700 0.078700 -0.283500
vn 0.955700 -0.078700 -0.283500
vn 0.757100 -0.563600 -0.330300
vn 0.757100 -0.563600 0.330300
vn 0.757100 0.563600 0.330300
vn 0.757100 0.563600 -0.330300
vn 0.984100 -0.078700 -0.159300
vn 0.984100 0.078700 -0.159300
vn 0.984100 0.078700 0.159300
vn 0.984100 -0.078700 0.159300
vn 0.825400 -0.563600 0.031000
vn 0.538900 -0.563600 0.626000
vn 0.538900 0.563600 0.626100
vn 0.825400 0.563600 0.031000
vn 0.955700 -0.078700 0.283500
vn 0.955700 0.078700 0.283500
vn 0.817500 0.078700 0.570500
vn 0.817500 -0.078700 0.570500
vn 0.730300 -0.563600 0.386000
vn 0.213900 -0.563600 0.797900
vn 0.213900 0.563600 0.797900
vn 0.730300 0.563600 0.386000
vn 0.738100 -0.078700 0.670100
vn 0.738100 0.078700 0.670100
vn 0.489000 0.078700 0.868700
vn 0.489000 -0.078700 0.868700
vn 0.490500 -0.563600 0.664700
vn -0.153500 -0.563600 0.811600
vn -0.153500 0.563600 0.811600
vn 0.490500 0.563600 0.664700
vn 0.374300 -0.078700 0.924000
vn 0.374300 0.078700 0.924000
vn 0.063600 0.078700 0.994900
vn 0.063600 -0.078700 0.994900
vn 0.153500 -0.563600 0.811600
vn -0.490500 -0.563600 0.664700
vn -0.490500 0.563600 0.664700
vn 0.153500 0.563600 0.811600
vn -0.063600 -0.078700 0.994900
vn -0.063600 0.078700 0.994900
vn -0.374300 0.078700 0.924000
vn -0.374300 -0.078700 0.924000
vn -0.213900 -0.563600 0.797900
vn -0.730300 -0.563600 0.386000
vn -0.730300 0.563600 0.386000
vn -0.213900 0.563600 0.797900
vn -0.489000 -0.078700 0.868700
vn -0.489000 0.078700 0.868700
vn -0.738100 0.078700 0.670100
vn -0.738100 -0.078700 0.670100
vn -0.538900 -0.563600 0.626100
vn -0.825400 -0.563600 0.030900
vn -0.825500 0.563600 0.030900
vn -0.538900 0.563600 0.626100
vn -0.817500 -0.078700 0.570500
vn -0.817500 0.078700 0.570500
vn -0.955700 0.078700 0.283500
vn -0.955700 -0.078700 0.283500
vn -0.757100 -0.563600 0.330300
vn -0.757100 -0.563600 -0.330300
vn -0.757100 0.563600 -0.330300
vn -0.757100 0.563600 0.330300
vn -0.984100 -0.078700 0.159300
vn -0.984100 0.078700 0.159300
vn -0.984100 0.078700 -0.159300
vn -0.984100 -0.078700 -0.159300
vn -0.825400 -0.563600 -0.030900
vn -0.538900 -0.563600 -0.626100
vn -0.538900 0.563600 -0.626100
vn -0.825500 0.563600 -0.030900
vn -0.955700 -0.078700 -0.283500
vn -0.955700 0.078700 -0.283500
vn -0.817500 0.078700 -0.570500
vn -0.817500 -0.078700 -0.570500
vn -0.730300 -0.563600 -0.386000
vn -0.213800 -0.563600 -0.797900
vn -0.213800 0.563600 -0.797900
vn -0.730300 0.563600 -0.386000
vn -0.738100 -0.078700 -0.670100
vn -0.738100 0.078700 -0.670100
vn -0.489000 0.078700 -0.868700
vn -0.489000 -0.078700 -0.868700
vn -0.490500 -0.563600 -0.664700
vn 0.153500 -0.563600 -0.811600
vn 0.153500 0.563600 -0.811600
vn -0.490500 0.563600 -0.664700
vn -0.374300 -0.078700 -0.924000
vn -0.374300 0.078700 -0.924000
vn -0.063700 0.078700 -0.994900
vn -0.063700 -0.078700 -0.994900
usemtl None
s 1
f 1//1 2//1 3//1 4//1
f 1//2 4//2 5//2 6//2
f 1//3 6//3 7//3 2//3
f 8//4 9//4 10//4 11//4
f 8//5 11//5 12//5 13//5
f 8//6 13//6 14//6 9//6
f 15//7 6//7 5//7 16//7
f 15//8 16//8 14//8 13//8
f 15//9 13//9 12//9 17//9
f 15//10 17//10 7//10 6//10
f 18//1 19//1 3//1 2//1
f 18//11 2//11 7//11 20//11
f 18//12 20//12 21//12 19//12
f 22//4 11//4 10//4 23//4
f 22//13 23//13 24//13 25//13
f 22//14 25//14 12//14 11//14
f 26//15 20//15 7//15 17//15
f 26//16 17//16 12//16 25//16
f 26//17 25//17 24//17 27//17
f 26//18 27//18 21//18 20//18
f 28//1 29//1 3//1 19//1
f 28//19 19//19 21//19 30//19
f 28//20 30//20 31//20 29//20
f 32//4 23//4 10//4 33//4
f 32//21 33//21 34//21 35//21
f 32//22 35//22 24//22 23//22
f 36//23 30//23 21//23 27//23
f 36//24 27//24 24//24 35//24
f 36//25 35//25 34//25 37//25
f 36//26 37//26 31//26 30//26
f 38//1 39//1 3//1 29//1
f 38//27 29//27 31//27 40//27
f 38//28 40//28 41//28 39//28
f 42//4 33//4 10//4 43//4
f 42//29 43//29 44//29 45//29
f 42//30 45//30 34//30 33//30
f 46//31 40//31 31//31 37//31
f 46//32 37//32 34//32 45//32
f 46//33 45//33 44//33 47//33
f 46//34 47//34 41//34 40//34
f 48//1 49//1 3//1 39//1
f 48//35 39//35 41//35 50//35
f 48//36 50//36 51//36 49//36
f 52//4 43//4 10//4 53//4
f 52//37 53//37 54//37 55//37
f 52//38 55//38 44//38 43//38
f 56//39 50//39 41//39 47//39
f 56//40 47//40 44//40 55//40
f 56//41 55//41 54//41 57//41
f 56//42 57//42 51//42 50//42
f 58//1 59//1 3//1 49//1
f 58//43 49//43 51//43 60//43
f 58//44 60//44 61//44 59//44
f 62//4 53//4 10//4 63//4
f 62//45 63//45 64//45 65//45
f 62//46 65//46 54//46 53//46
f 66//47 60//47 51//47 57//47
f 66//48 57//48 54//48 65//48
f 66//49 65//49 64//49 67//49
f 66//50 67//50 61//50 60//50
f 68//1 69//1 3//1 59//1
f 68//51 59//51 61//51 70//51
f 68//52 70//52 71//52 69//52
f 72//4 63//4 10//4 73//4
f 72//53 73//53 74//53 75//53
f 72//54 75//54 64//54 63//54
f 76//55 70//55 61//55 67//55
f 76//56 67//56 64//56 75//56
f 76//57 75//57 74//57 77//57
f 76//58 77//58 71//58 70//58
f 78//1 79//1 3//1 69//1
f 78//59 69//59 71//59 80//59
f 78//60 80//60 81//60 79//60
f 82//4 73//4 10//4 83//4
f 82//61 83//61 84//61 85//61
f 82//62 85//62 74//62 73//62
f 86//63 80//63 71//63 77//63
f 86//64 77//64 74//64 85//64
f 86//65 85//65 84//65 87//65
f 86//66 87//66 81//66 80//66
f 88//1 89//1 3//1 79//1
f 88//67 79//67 81//67 90//67
f 88//68 90//68 91//68 89//68
f 92//4 83//4 10//4 93//4
f 92//69 93//69 94//69 95//69
f 92//70 95//70 84//70 83//70
f 96//71 90//71 81//71 87//71
f 96//72 87//72 84//72 95//72
f 96//73 95//73 94//73 97//73
f 96//74 97//74 91//74 90//74
f 98//1 99//1 3//1 89//1
f 98//75 89//75 91//75 100//75
f 98//76 100//76 101//76 99//76
f 102//4 93//4 10//4 103//4
f 102//77 103//77 104//77 105//77
f 102//78 105//78 94//78 93//78
f 106//79 100//79 91//79 97//79
f 106//80 97//80 94//80 105//80
f 106//81 105//81 104//81 107//81
f 106//82 107//82 101//82 100//82
f 108//1 109//1 3//1 99//1
f 108//83 99//83 101//83 110//83
f 108//84 110//84 111//84 109//84
f 112//4 103//4 10//4 113//4
f 112//85 113//85 114//85 115//85
f 112//86 115//86 104//86 103//86
f 116//87 110//87 101//87 107//87
f 116//88 107//88 104//88 115//88
f 116//89 115//89 114//89 117//89
f 116//90 117//90 111//90 110//90
f 118//1 119//1 3//1 109//1
f 118//91 109//91 111//91 120//91
f 118//92 120//92 121//92 119//92
f 122//4 113//4 10//4 123//4
f 122//93 123//93 124//93 125//93
f 122//94 125//94 114//94 113//94
f 126//95 120//95 111//95 117//95
f 126//96 117//96 114//96 125//96
f 126//97 125//97 124//97 127//97
f 126//98 127//98 121//98 120//98
f 128//1 129//1 3//1 119//1
f 128//99 119//99 121//99 130//99
f 128//100 130//100 131//100 129//100
f 132//4 123//4 10//4 133//4
f 132//101 133//101 134//101 135//101
f 132//102 135//102 124//102 123//102
f 136//103 130//103 121//103 127//103
f 136//104 127//104 124//104 135//104
f 136//105 135//105 134//105 137//105
f 136//106 137//106 131//106 130//106
f 138//1 4//1 3//1 129//1
f 138//107 129//107 131//107 139//107
f 138//108 139//108 5//108 4//108
f 140//4 133//4 10//4 9//4
f 140//109 9//109 14//109 141//109
f 140//110 141//110 134//110 133//110
f 142//111 139//111 131//111 137//111
f 142//112 137//112 134//112 141//112
f 142//113 141//113 14//113 16//113
f 142//114 16//114 5//114 139//114
