# Blender v2.76 (sub 0) OBJ File: ''
# www.blender.org
mtllib screen.mtl
o Screen
v -0.575350 0.530489 -0.350535
v 0.570604 0.530489 -0.350535
v 0.570604 0.530489 -0.315043
v -0.575350 0.530489 -0.315043
v -0.575350 1.407151 -0.350535
v -0.575350 1.407151 -0.315043
v 0.570604 1.407151 -0.315043
v 0.570604 1.407151 -0.350535
v -0.678040 0.451930 -0.326187
v 0.673294 0.451930 -0.326187
v 0.673294 0.451930 -0.281234
v -0.678041 0.451930 -0.281234
v -0.678040 1.485710 -0.326187
v -0.678040 1.485710 -0.281234
v 0.673294 1.485710 -0.281234
v 0.673295 1.485710 -0.326187
vn 0.000000 -1.000000 0.000000
vn 0.000000 1.000000 0.000000
vn 0.000000 0.000000 -1.000000
vn 1.000000 -0.000000 0.000000
vn 0.000000 -0.000000 1.000000
vn -1.000000 0.000000 0.000000
usemtl (null)
s 1
f 1//1 2//1 3//1 4//1
f 5//2 6//2 7//2 8//2
f 1//3 5//3 8//3 2//3
f 2//4 8//4 7//4 3//4
f 3//5 7//5 6//5 4//5
f 5//6 1//6 4//6 6//6
f 9//1 10//1 11//1 12//1
f 13//2 14//2 15//2 16//2
f 9//3 13//3 16//3 10//3
f 10//4 16//4 15//4 11//4
f 11//5 15//5 14//5 12//5
f 13//6 9//6 12//6 14//6
